<?xml version="1.0" encoding="UTF-8" standalone="no"?>
<!-- Created with Inkscape (http://www.inkscape.org/) -->

<svg
   version="1.1"
   id="svg2"
   xml:space="preserve"
   width="610.50531"
   height="610.50665"
   viewBox="0 0 610.50532 610.50665"
   sodipodi:docname="RE- balance wellness.pdf"
   inkscape:version="1.1.1 (c3084ef, 2021-09-22)"
   xmlns:inkscape="http://www.inkscape.org/namespaces/inkscape"
   xmlns:sodipodi="http://sodipodi.sourceforge.net/DTD/sodipodi-0.dtd"
   xmlns="http://www.w3.org/2000/svg"
   xmlns:svg="http://www.w3.org/2000/svg"><defs
     id="defs6"><clipPath
       clipPathUnits="userSpaceOnUse"
       id="clipPath16"><path
         d="M 0,613.614 H 1292.048 V 0 H 0 Z"
         id="path14" /></clipPath><clipPath
       clipPathUnits="userSpaceOnUse"
       id="clipPath100"><path
         d="M 983.282,436.302 H 1056.9 V 359.224 H 983.282 Z"
         id="path98" /></clipPath><clipPath
       clipPathUnits="userSpaceOnUse"
       id="clipPath116"><path
         d="m 941.289,418.209 h 48.758 v -72.163 h -48.758 z"
         id="path114" /></clipPath><clipPath
       clipPathUnits="userSpaceOnUse"
       id="clipPath132"><path
         d="m 952.205,473.504 h 33.083 v -58.675 h -33.083 z"
         id="path130" /></clipPath><clipPath
       clipPathUnits="userSpaceOnUse"
       id="clipPath148"><path
         d="m 956.416,451.374 h 66.034 v -42.267 h -66.034 z"
         id="path146" /></clipPath><clipPath
       clipPathUnits="userSpaceOnUse"
       id="clipPath164"><path
         d="m 784.937,435.662 h 72.146 v -76.61 h -72.146 z"
         id="path162" /></clipPath><clipPath
       clipPathUnits="userSpaceOnUse"
       id="clipPath180"><path
         d="m 851.108,417.644 h 48.2 v -71.667 h -48.2 z"
         id="path178" /></clipPath><clipPath
       clipPathUnits="userSpaceOnUse"
       id="clipPath196"><path
         d="m 895.923,495.243 h 49.318 v -80.67 h -49.318 z"
         id="path194" /></clipPath><clipPath
       clipPathUnits="userSpaceOnUse"
       id="clipPath212"><path
         d="m 858.839,473.834 h 33.482 v -59.951 h -33.482 z"
         id="path210" /></clipPath><clipPath
       clipPathUnits="userSpaceOnUse"
       id="clipPath228"><path
         d="M 819.007,451.953 H 885.05 V 409.994 H 819.007 Z"
         id="path226" /></clipPath><clipPath
       clipPathUnits="userSpaceOnUse"
       id="clipPath352"><path
         d="m 398.736,435.059 h 73.613 v -77.072 h -73.613 z"
         id="path350" /></clipPath><clipPath
       clipPathUnits="userSpaceOnUse"
       id="clipPath368"><path
         d="M 356.746,416.968 H 405.5 V 344.81 h -48.754 z"
         id="path366" /></clipPath><clipPath
       clipPathUnits="userSpaceOnUse"
       id="clipPath384"><path
         d="m 367.661,472.259 h 33.081 v -58.671 h -33.081 z"
         id="path382" /></clipPath><clipPath
       clipPathUnits="userSpaceOnUse"
       id="clipPath400"><path
         d="m 371.872,450.131 h 66.031 v -42.265 h -66.031 z"
         id="path398" /></clipPath><clipPath
       clipPathUnits="userSpaceOnUse"
       id="clipPath416"><path
         d="m 200.405,434.42 h 72.14 v -76.605 h -72.14 z"
         id="path414" /></clipPath><clipPath
       clipPathUnits="userSpaceOnUse"
       id="clipPath432"><path
         d="m 266.571,416.403 h 48.197 v -71.662 h -48.197 z"
         id="path430" /></clipPath><clipPath
       clipPathUnits="userSpaceOnUse"
       id="clipPath448"><path
         d="m 311.383,493.997 h 49.315 v -80.665 h -49.315 z"
         id="path446" /></clipPath><clipPath
       clipPathUnits="userSpaceOnUse"
       id="clipPath464"><path
         d="m 274.301,472.589 h 33.48 v -59.947 h -33.48 z"
         id="path462" /></clipPath><clipPath
       clipPathUnits="userSpaceOnUse"
       id="clipPath480"><path
         d="m 234.472,450.709 h 66.039 v -41.956 h -66.039 z"
         id="path478" /></clipPath></defs><sodipodi:namedview
     id="namedview4"
     pagecolor="#ffffff"
     bordercolor="#666666"
     borderopacity="1.0"
     inkscape:pageshadow="2"
     inkscape:pageopacity="0.0"
     inkscape:pagecheckerboard="true"
     showgrid="false"
     fit-margin-top="0"
     fit-margin-left="0"
     fit-margin-right="0"
     fit-margin-bottom="0"
     inkscape:zoom="0.70005033"
     inkscape:cx="326.4051"
     inkscape:cy="352.11754"
     inkscape:window-width="1375"
     inkscape:window-height="855"
     inkscape:window-x="0"
     inkscape:window-y="23"
     inkscape:window-maximized="0"
     inkscape:current-layer="g12" /><g
     id="g8"
     inkscape:groupmode="layer"
     inkscape:label="RE- balance wellness"
     transform="matrix(1.3333333,0,0,-1.3333333,-148.34746,723.46358)"><g
       id="g10"><g
         id="g12"
         clip-path="url(#clipPath16)"><g
           id="g18"
           transform="translate(1153.6978,314.8917)"><path
             d="m 0,0 c 0,-126.449 -102.507,-228.956 -228.956,-228.956 -126.449,0 -228.956,102.507 -228.956,228.956 0,126.449 102.507,228.956 228.956,228.956 C -102.507,228.956 0,126.449 0,0"
             style="fill:#47464a;fill-opacity:1;fill-rule:nonzero;stroke:none"
             id="path20" /></g><g
           id="g22"
           transform="translate(792.8186,217.2992)"><path
             d="M 0,0 C 0,3.972 -2.243,5.959 -6.73,5.959 H -7.907 V -5.339 c 0,-0.451 0.093,-0.722 0.281,-0.816 0.186,-0.094 0.728,-0.14 1.626,-0.14 3.999,0 6,2.098 6,6.295 m -1.186,12.256 c 0,2.47 -0.56,4.024 -1.68,4.661 -0.636,0.374 -1.7,0.562 -3.192,0.562 -0.636,0 -1.102,-0.02 -1.4,-0.057 L -7.907,17.366 V 6.919 c 2.016,0.037 3.398,0.225 4.145,0.562 1.717,0.785 2.576,2.377 2.576,4.775 M 4.912,-0.423 c 0,-1.732 -0.63,-3.162 -1.891,-4.291 -1.262,-1.129 -3.003,-1.864 -5.223,-2.202 -1.32,-0.189 -4.236,-0.283 -8.754,-0.283 h -3.445 -0.113 -0.79 c -0.265,-0.037 -0.395,0.094 -0.395,0.395 0,0.226 0.075,0.358 0.226,0.395 0.149,0.037 0.601,0.057 1.355,0.057 0.752,0 1.185,0.075 1.299,0.226 0.113,0.15 0.169,0.621 0.169,1.412 v 20.386 c 0,0.978 -0.056,1.553 -0.169,1.722 -0.114,0.169 -0.716,0.272 -1.807,0.311 -0.791,0.037 -1.186,0.169 -1.186,0.395 0,0.301 0.414,0.452 1.242,0.452 h 0.961 c 0.413,0 1.524,-0.038 3.331,-0.114 h 2.71 c 2.597,-0.037 4.235,-0.093 4.914,-0.169 0.902,-0.075 1.73,-0.244 2.483,-0.507 2.712,-0.98 4.067,-2.693 4.067,-5.14 0,-3.425 -2.636,-5.458 -7.905,-6.098 L -3.954,6.355 C -1.206,6.316 0.96,5.686 2.541,4.463 4.122,3.239 4.912,1.61 4.912,-0.423"
             style="fill:#ffffff;fill-opacity:1;fill-rule:nonzero;stroke:none"
             id="path24" /></g><g
           id="g26"
           transform="translate(834.0962,219.3046)"><path
             d="M 0,0 -3.631,9.65 C -4.547,7.392 -5.805,4.176 -7.406,0 Z m 11.465,-8.865 c 0,-0.226 -0.377,-0.34 -1.129,-0.34 H 9.941 6.439 4.858 2.204 0.51 -0.506 -0.789 c -0.677,0 -1.017,0.15 -1.017,0.45 0,0.299 0.678,0.466 2.033,0.505 1.618,0.037 2.429,0.223 2.429,0.56 0,0.074 -0.113,0.43 -0.339,1.066 -0.076,0.299 -0.509,1.55 -1.299,3.758 L 0.341,-0.96 h -8.076 c -1.544,-3.877 -2.316,-6.118 -2.316,-6.719 0,-0.34 0.226,-0.528 0.678,-0.566 L -8.639,-8.3 h 0.847 l 0.509,-0.17 c 0.451,0 0.677,-0.115 0.677,-0.342 0,-0.262 -0.395,-0.393 -1.186,-0.393 -0.112,0 -0.781,0.029 -2.004,0.085 -1.224,0.057 -2.306,0.085 -3.248,0.085 h -0.507 l -0.509,-0.085 -0.62,-0.085 h -0.114 c -0.601,0 -0.903,0.114 -0.903,0.34 0,0.264 0.245,0.415 0.734,0.453 0.678,0.038 1.129,0.075 1.355,0.114 0.64,0.113 1.053,0.282 1.243,0.509 0.226,0.112 1.147,2.265 2.766,6.454 0.64,1.699 1.261,3.284 1.866,4.755 0.224,0.529 0.375,0.924 0.45,1.19 0.076,0.264 0.226,0.659 0.452,1.188 0.64,1.548 1.543,3.888 2.712,7.021 l 0.851,2.37 0.39,1.018 c 0.226,0.566 0.452,0.847 0.678,0.847 0.113,0 0.357,-0.527 0.734,-1.581 1.129,-2.748 4.046,-10.015 8.751,-21.797 0.452,-1.167 0.885,-1.789 1.3,-1.864 0.112,-0.037 0.715,-0.094 1.807,-0.169 0.715,-0.039 1.073,-0.208 1.073,-0.508"
             style="fill:#ffffff;fill-opacity:1;fill-rule:nonzero;stroke:none"
             id="path28" /></g><g
           id="g30"
           transform="translate(886.5587,215.2397)"><path
             d="m 0,0 c 0,-2.11 -0.038,-3.879 -0.114,-5.309 -0.226,-0.037 -0.507,-0.057 -0.847,-0.057 -0.037,0 -0.329,0.029 -0.875,0.085 -0.546,0.057 -1.252,0.086 -2.118,0.086 h -2.653 l -9.657,0.112 h -4.631 c -0.49,0 -0.733,0.123 -0.733,0.37 0,0.213 0.733,0.372 2.202,0.478 0.414,0.037 0.668,0.13 0.762,0.281 0.093,0.151 0.141,0.567 0.141,1.247 v 18.96 c 0,2.113 -0.169,3.226 -0.508,3.339 -0.152,0.076 -0.481,0.114 -0.988,0.114 -0.508,0 -0.839,0.019 -0.989,0.057 -0.414,0 -0.62,0.151 -0.62,0.452 0,0.265 0.244,0.397 0.737,0.397 h 7.833 1.306 c 0.718,0 1.079,-0.159 1.079,-0.478 0,-0.211 -0.622,-0.334 -1.864,-0.37 -0.603,-0.038 -0.96,-0.17 -1.074,-0.396 -0.112,-0.226 -0.169,-1.038 -0.169,-2.434 v -21 c 1.499,-0.039 2.586,-0.057 3.261,-0.057 4.047,0 6.577,0.395 7.59,1.186 0.823,0.639 1.348,1.994 1.573,4.066 0.075,0.903 0.283,1.355 0.621,1.355 C -0.246,2.484 0,1.655 0,0"
             style="fill:#ffffff;fill-opacity:1;fill-rule:nonzero;stroke:none"
             id="path32" /></g><g
           id="g34"
           transform="translate(921.7369,219.3046)"><path
             d="M 0,0 -3.631,9.65 C -4.547,7.392 -5.805,4.176 -7.406,0 Z m 11.465,-8.865 c 0,-0.226 -0.377,-0.34 -1.129,-0.34 H 9.941 6.439 4.858 2.204 0.51 -0.506 -0.789 c -0.677,0 -1.017,0.15 -1.017,0.45 0,0.299 0.678,0.466 2.033,0.505 1.618,0.037 2.429,0.223 2.429,0.56 0,0.074 -0.113,0.43 -0.339,1.066 -0.076,0.299 -0.509,1.55 -1.299,3.758 L 0.341,-0.96 h -8.076 c -1.544,-3.877 -2.316,-6.118 -2.316,-6.719 0,-0.34 0.226,-0.528 0.678,-0.566 L -8.639,-8.3 h 0.847 l 0.509,-0.17 c 0.451,0 0.677,-0.115 0.677,-0.342 0,-0.262 -0.395,-0.393 -1.186,-0.393 -0.112,0 -0.781,0.029 -2.004,0.085 -1.224,0.057 -2.306,0.085 -3.248,0.085 h -0.507 l -0.509,-0.085 -0.62,-0.085 h -0.114 c -0.601,0 -0.903,0.114 -0.903,0.34 0,0.264 0.245,0.415 0.734,0.453 0.678,0.038 1.129,0.075 1.355,0.114 0.64,0.113 1.053,0.282 1.243,0.509 0.226,0.112 1.147,2.265 2.766,6.454 0.64,1.699 1.261,3.284 1.866,4.755 0.224,0.529 0.375,0.924 0.45,1.19 0.076,0.264 0.226,0.659 0.452,1.188 0.64,1.548 1.543,3.888 2.712,7.021 l 0.851,2.37 0.39,1.018 c 0.226,0.566 0.452,0.847 0.678,0.847 0.113,0 0.357,-0.527 0.734,-1.581 1.129,-2.748 4.046,-10.015 8.751,-21.797 0.452,-1.167 0.885,-1.789 1.3,-1.864 0.112,-0.037 0.715,-0.094 1.807,-0.169 0.715,-0.039 1.073,-0.208 1.073,-0.508"
             style="fill:#ffffff;fill-opacity:1;fill-rule:nonzero;stroke:none"
             id="path36" /></g><g
           id="g38"
           transform="translate(977.306,235.4561)"><path
             d="m 0,0 c 0,-0.264 -0.415,-0.395 -1.243,-0.395 h -0.79 -0.621 c -0.339,0 -0.537,-0.077 -0.593,-0.228 -0.057,-0.152 -0.084,-0.661 -0.084,-1.532 v -20.816 c 0,-1.363 -0.02,-2.158 -0.057,-2.384 -0.039,-0.226 -0.208,-0.34 -0.509,-0.34 -0.415,0 -1.753,1.58 -4.015,4.74 -0.262,0.415 -0.673,0.98 -1.235,1.7 -0.075,0.112 -0.281,0.395 -0.618,0.848 -1.883,2.499 -5.292,7.192 -10.225,14.082 v -17.909 c 0,-1.402 0.197,-2.141 0.592,-2.218 0.395,-0.075 1.119,-0.114 2.174,-0.114 h 0.226 c 0.453,0 0.679,-0.123 0.679,-0.368 0,-0.282 -0.415,-0.422 -1.243,-0.422 -0.151,0 -0.772,0.038 -1.864,0.114 -0.564,0.037 -1.073,0.055 -1.524,0.055 -0.377,0 -0.754,-0.018 -1.13,-0.055 -0.716,-0.076 -1.488,-0.114 -2.315,-0.114 -0.603,0 -0.904,0.14 -0.904,0.422 0,0.245 0.358,0.368 1.073,0.368 h 0.508 l 0.735,0.057 c 0.903,0.076 1.373,0.246 1.412,0.513 0.037,0.151 0.055,0.701 0.055,1.649 v 15.639 c 0,2.843 -0.169,4.549 -0.508,5.119 -0.452,0.757 -1.336,1.137 -2.654,1.137 -0.941,0 -1.412,0.159 -1.412,0.476 0,0.247 0.245,0.371 0.735,0.371 h 0.225 3.106 0.734 1.017 2.09 l 13.326,-18.35 v 15.696 c 0,0.941 -0.037,1.487 -0.112,1.638 -0.077,0.149 -0.377,0.226 -0.904,0.226 h -1.186 -0.339 c -0.715,0 -1.073,0.14 -1.073,0.421 0,0.176 0.178,0.281 0.537,0.316 0.357,0.035 1.628,0.053 3.812,0.053 2.07,0 3.275,-0.017 3.614,-0.05 C -0.169,0.312 0,0.197 0,0"
             style="fill:#ffffff;fill-opacity:1;fill-rule:nonzero;stroke:none"
             id="path40" /></g><g
           id="g42"
           transform="translate(1021.9743,218.571)"><path
             d="m 0,0 c 0,-0.112 -0.02,-0.434 -0.057,-0.96 -0.151,-2.033 -0.226,-3.465 -0.226,-4.292 0,-0.565 0.057,-1.393 0.169,-2.484 v -0.395 c 0,-0.377 -0.15,-0.566 -0.452,-0.566 -0.301,0 -0.601,0.32 -0.903,0.961 l -0.509,1.072 c -0.037,0.075 -0.093,0.188 -0.169,0.34 -1.693,-1.658 -4.028,-2.485 -7.002,-2.485 -3.803,0 -6.965,1.267 -9.486,3.803 -2.524,2.537 -3.784,5.72 -3.784,9.552 0,3.831 1.166,6.977 3.501,9.439 2.334,2.46 5.309,3.691 8.923,3.691 2.822,0 5.195,-0.735 7.115,-2.203 0.149,-0.15 0.301,-0.226 0.452,-0.226 0.187,0 0.357,0.245 0.507,0.734 0.263,0.827 0.583,1.243 0.96,1.243 0.263,0 0.395,-0.151 0.395,-0.453 0,-0.037 -0.037,-0.207 -0.112,-0.507 -0.226,-1.281 -0.358,-3.182 -0.395,-5.704 -0.039,-1.581 -0.246,-2.372 -0.622,-2.372 -0.301,0 -0.507,0.28 -0.621,0.842 -0.377,2.019 -0.829,3.515 -1.355,4.488 -1.206,2.131 -3.182,3.198 -5.929,3.198 -2.297,0 -4.123,-1.104 -5.478,-3.309 -1.355,-2.206 -2.033,-5.198 -2.033,-8.975 0,-3.775 0.752,-6.767 2.259,-8.973 1.504,-2.205 3.538,-3.309 6.098,-3.309 1.958,0 3.587,0.66 4.885,1.979 1.299,1.321 2.154,3.152 2.57,5.494 0.187,0.967 0.432,1.45 0.733,1.45 C -0.189,1.073 0,0.715 0,0"
             style="fill:#ffffff;fill-opacity:1;fill-rule:nonzero;stroke:none"
             id="path44" /></g><g
           id="g46"
           transform="translate(1066.1906,216.2298)"><path
             d="m 0,0 c 0,-0.04 -0.029,-0.279 -0.085,-0.719 -0.056,-0.44 -0.084,-0.833 -0.084,-1.177 V -5.17 c 0,-0.341 0.055,-0.718 0.169,-1.129 l -9.424,0.169 -10.787,-0.169 c -0.795,0 -1.191,0.151 -1.191,0.448 0,0.341 0.225,0.512 0.677,0.512 1.204,0 1.91,0.084 2.117,0.255 0.207,0.169 0.311,0.78 0.311,1.835 v 19.426 c 0,1.542 -0.132,2.362 -0.395,2.456 -0.265,0.094 -0.923,0.141 -1.976,0.141 -0.453,0 -0.679,0.131 -0.679,0.395 0,0.302 0.245,0.453 0.735,0.453 h 1.355 1.129 0.622 1.411 2.824 6.212 3.331 2.429 v -0.39 l 0.056,-0.835 c 0.076,-0.556 0.226,-2.226 0.452,-5.008 0.037,-0.185 0.056,-0.409 0.056,-0.668 0,-0.482 -0.131,-0.723 -0.393,-0.723 -0.338,0 -0.581,0.375 -0.731,1.129 -0.524,2.861 -1.519,4.537 -2.981,5.026 -0.823,0.263 -2.773,0.395 -5.845,0.395 h -2.869 V 7.988 h 1.346 c 2.389,0 3.863,0.197 4.423,0.593 0.561,0.395 0.933,1.478 1.121,3.248 0.112,1.053 0.339,1.581 0.678,1.581 0.376,0 0.565,-0.377 0.565,-1.131 0,-0.45 -0.029,-1.148 -0.085,-2.088 C -5.563,9.25 -5.59,8.533 -5.59,8.045 c 0,-2.448 0.042,-4.123 0.126,-5.026 0.028,-0.302 0.043,-0.547 0.043,-0.735 0,-0.602 -0.187,-0.903 -0.557,-0.903 -0.334,0 -0.558,0.471 -0.669,1.412 -0.223,2.033 -0.595,3.247 -1.114,3.642 -0.521,0.395 -1.987,0.594 -4.4,0.594 h -1.393 V -5.17 c 5.509,0.038 8.751,0.189 9.726,0.452 1.499,0.414 2.379,2.221 2.642,5.421 0.037,0.565 0.243,0.848 0.62,0.848 C -0.189,1.551 0,1.034 0,0"
             style="fill:#ffffff;fill-opacity:1;fill-rule:nonzero;stroke:none"
             id="path48" /></g><g
           id="g50"
           transform="translate(842.7769,318.3155)"><path
             d="m 0,0 c 0,11.167 -4.842,16.752 -14.525,16.752 -2.578,0 -4.335,-0.351 -5.272,-1.055 -0.937,-0.702 -1.405,-1.951 -1.405,-3.747 v -29.755 c 7.496,-0.079 12.903,1.288 16.225,4.099 C -1.659,-10.894 0,-6.326 0,0 m 24.25,-58.69 c 0,-3.28 -2.734,-4.92 -8.201,-4.92 -6.091,0 -10.856,2.537 -14.292,7.614 -1.484,2.185 -2.44,4.295 -2.87,6.327 -0.429,2.029 -1.073,7.184 -1.932,15.462 -0.469,4.997 -2.071,8.532 -4.804,10.603 -2.734,2.068 -7.186,3.18 -13.353,3.338 v -36.901 c 0,-1.563 1.248,-2.539 3.747,-2.928 0.704,-0.079 2.499,-0.158 5.389,-0.235 1.015,0 1.523,-0.313 1.523,-0.937 0,-0.703 -0.664,-1.055 -1.991,-1.055 h -1.406 -10.191 -5.975 -5.388 -4.569 c -1.719,0 -2.578,0.352 -2.578,1.055 0,0.545 1.131,0.858 3.397,0.937 3.671,0.077 5.663,0.545 5.975,1.405 0.312,0.391 0.469,1.913 0.469,4.569 V 10.31 c 0,3.122 -0.334,4.997 -0.997,5.622 -0.664,0.624 -2.675,0.976 -6.032,1.055 -1.953,0 -2.929,0.352 -2.929,1.054 0,0.78 0.624,1.171 1.875,1.171 0.234,0 0.585,-0.04 1.054,-0.116 l 15.58,-0.352 c 1.561,0 3.749,0.05 6.561,0.156 3.122,0.208 5.309,0.312 6.56,0.312 7.263,0 13.022,-1.621 17.279,-4.862 4.255,-3.241 6.384,-7.633 6.384,-13.178 0,-5.468 -2.186,-9.977 -6.559,-13.53 -4.376,-3.555 -10.31,-5.643 -17.807,-6.269 -0.703,-0.078 -1.095,-0.194 -1.172,-0.352 0,-0.313 0.391,-0.469 1.172,-0.469 8.201,-1.41 13.842,-4.288 16.927,-8.634 3.085,-4.347 5.135,-12.198 6.151,-23.554 0.624,-6.421 2.81,-9.631 6.56,-9.631 1.172,0 1.757,0.235 1.757,0.702 0,0.078 -0.04,0.156 -0.118,0.235 -0.39,0.859 -0.585,1.561 -0.585,2.108 0,1.641 0.859,2.461 2.577,2.461 1.875,0 2.812,-0.977 2.812,-2.929"
             style="fill:#ffffff;fill-opacity:1;fill-rule:nonzero;stroke:none"
             id="path52" /></g><g
           id="g54"
           transform="translate(1042.2185,276.0319)"><path
             d="m 0,0 c 0,-0.319 -0.08,-2.267 -0.239,-5.845 -0.16,-3.577 -0.237,-6.997 -0.237,-10.255 v -3.937 c -7.794,0.477 -23.217,0.716 -46.275,0.716 h -8.228 -5.486 -1.193 c -1.511,0 -2.265,0.319 -2.265,0.96 0,0.426 0.237,0.676 0.715,0.747 0.237,0 1.748,0.106 4.532,0.321 2.066,0.158 3.318,0.595 3.756,1.315 0.436,0.717 0.657,2.592 0.657,5.623 v 67.227 c 0,2.312 -0.341,3.688 -1.015,4.128 -0.676,0.437 -2.843,0.658 -6.499,0.658 -1.274,0 -1.909,0.337 -1.909,1.013 0,0.675 0.874,1.013 2.624,1.013 h 20.395 13.476 16.696 c 2.385,0 4.572,0.159 6.56,0.478 0.158,-3.419 0.516,-8.15 1.072,-14.192 l 0.478,-5.129 c 0.079,-0.398 0.12,-0.915 0.12,-1.55 0,-0.795 -0.359,-1.192 -1.074,-1.192 -0.875,0 -1.512,0.998 -1.908,3.001 -1.511,7.199 -3.977,11.761 -7.395,13.682 -2.545,1.439 -9.224,2.159 -20.035,2.159 h -9.779 V 25.88 h 2.861 c 8.904,0 14.331,0.674 16.28,2.026 1.946,1.352 3.28,5.287 3.995,11.807 0.158,1.67 0.596,2.504 1.311,2.504 0.874,0 1.313,-0.715 1.313,-2.145 0,-1.433 -0.08,-3.539 -0.239,-6.321 -0.16,-2.784 -0.239,-4.891 -0.239,-6.321 0,-8.509 0.127,-14.353 0.383,-17.531 0.063,-0.797 0.095,-1.473 0.095,-2.028 0,-1.034 -0.437,-1.552 -1.307,-1.552 -0.555,0 -0.93,0.339 -1.128,1.015 -0.196,0.675 -0.533,2.881 -1.007,6.619 -0.633,4.691 -2.574,7.591 -5.817,8.706 -1.426,0.478 -5.146,0.715 -11.159,0.715 h -5.342 v -39.952 c 17.49,0 27.745,0.352 30.768,1.06 5.248,1.178 8.23,6.204 8.945,15.078 0.159,1.961 0.674,2.944 1.55,2.944 C -0.399,2.504 0,1.669 0,0"
             style="fill:#ffffff;fill-opacity:1;fill-rule:nonzero;stroke:none"
             id="path56" /></g><g
           id="g58"
           transform="translate(917.0645,243.2174)"><path
             d="m 0,0 c 0.241,9.637 -1.101,19.26 -2.482,28.774 -0.359,2.473 -0.73,4.944 -1.096,7.416 -0.332,2.249 -0.975,4.079 -1.999,6.102 -1.817,3.593 -5.56,5.484 -9.222,6.755 -5.268,1.828 -10.899,2.338 -16.343,3.419 -1.571,0.312 -2.244,-2.097 -0.664,-2.411 4.609,-0.915 9.304,-1.45 13.852,-2.662 3.442,-0.918 7.988,-2.375 9.875,-5.686 1.044,-1.832 1.716,-3.641 2.023,-5.723 0.341,-2.314 0.689,-4.627 1.027,-6.942 0.686,-4.687 1.339,-9.381 1.821,-14.094 C -2.7,9.983 -2.375,4.992 -2.5,0 -2.54,-1.609 -0.04,-1.609 0,0"
             style="fill:#ffffff;fill-opacity:1;fill-rule:nonzero;stroke:none"
             id="path60" /></g><g
           id="g62"
           transform="translate(953.218,295.5338)"><path
             d="m 0,0 c -5.444,-1.081 -11.075,-1.591 -16.343,-3.419 -2.214,-0.769 -4.392,-1.75 -6.256,-3.189 -1.761,-1.359 -2.764,-3.04 -3.696,-5.031 -0.985,-2.107 -1.226,-4.297 -1.523,-6.579 -0.308,-2.368 -0.577,-4.74 -0.825,-7.114 -0.499,-4.783 -0.913,-9.575 -1.318,-14.367 -0.361,-4.257 -0.678,-8.523 -1.181,-12.767 -0.189,-1.594 2.313,-1.581 2.5,0 0.924,7.801 1.38,15.657 2.133,23.476 0.431,4.472 0.82,8.988 1.558,13.422 0.337,2.028 1.322,4.428 2.731,5.956 1.474,1.597 3.55,2.642 5.55,3.418 5.529,2.144 11.558,2.636 17.335,3.783 C 2.241,-2.098 1.574,0.312 0,0"
             style="fill:#ffffff;fill-opacity:1;fill-rule:nonzero;stroke:none"
             id="path64" /></g><g
           id="g66"
           transform="translate(919.9524,340.9223)"><path
             d="M 0,0 V 11.82"
             style="fill:none;stroke:#ffffff;stroke-width:3;stroke-linecap:butt;stroke-linejoin:miter;stroke-miterlimit:10;stroke-dasharray:none;stroke-opacity:1"
             id="path68" /></g><g
           id="g70"
           transform="translate(935.1382,377.3511)"><path
             d="m 0,0 c 0,-8.587 -7.468,-28.911 -15.16,-28.911 -7.692,0 -14.283,21.473 -14.283,30.06 0,8.587 6.591,12.254 14.283,12.254 C -7.468,13.403 0,8.587 0,0"
             style="fill:#ffffff;fill-opacity:1;fill-rule:nonzero;stroke:none"
             id="path72" /></g><g
           id="g74"
           transform="translate(886.495,310.7487)"><path
             d="m 0,0 c -3.789,-23.739 21.376,-7.744 27.673,2.986 1.044,1.78 3.353,4.002 4.983,3.927 C 34.349,6.836 36.458,4.512 37.467,2.668 43.036,-7.512 66.955,-21.865 66.955,-1.41 65.436,18.031 49.1,25.312 32.787,25.018 16.358,24.723 0.732,18.426 0,0 M 70.901,-16.98 C 54.804,-19.288 42.567,-16.974 32.449,-2.058 22.708,-16.615 11.528,-20.023 -4.767,-16.656 -7.839,-1.296 -7.623,15.671 5.894,25.613 17.32,34.017 46.583,33.417 58.994,26.55 75.78,17.263 74.62,-10.027 70.901,-16.98"
             style="fill:#ffffff;fill-opacity:1;fill-rule:nonzero;stroke:none"
             id="path76" /></g><g
           id="g78"
           transform="translate(896.6595,244.1319)"><path
             d="M 0,0 H -127.415"
             style="fill:#ffffff;fill-opacity:1;fill-rule:nonzero;stroke:#ffffff;stroke-width:2;stroke-linecap:butt;stroke-linejoin:miter;stroke-miterlimit:10;stroke-dasharray:none;stroke-opacity:1"
             id="path80" /></g><g
           id="g82"
           transform="translate(1074.4075,243.4807)"><path
             d="M 0,0 H -131.522"
             style="fill:#ffffff;fill-opacity:1;fill-rule:nonzero;stroke:#ffffff;stroke-width:2;stroke-linecap:butt;stroke-linejoin:miter;stroke-miterlimit:10;stroke-dasharray:none;stroke-opacity:1"
             id="path84" /></g><g
           id="g86"
           transform="translate(883.687,129.1746)"><path
             d="m 0,0 c 11.425,0.027 20.424,5.512 28.649,12.752 1.164,1.024 0.658,1.806 -0.31,2.502 -5.246,3.769 -10.246,7.969 -15.813,11.183 -9.946,5.742 -20.382,5.418 -30.575,0.468 -4.431,-2.152 -7.074,-5.858 -6.986,-11.123 0.089,-5.335 3.161,-8.754 7.334,-11.32 C -12.308,1.146 -6.277,0.042 0,0 M 45.964,14.045 C 50.676,8.344 59.711,2.946 68.42,0.898 c 8.5,-1.999 16.757,-0.925 24.392,3.323 4.411,2.455 7.799,5.988 7.84,11.529 0.043,5.74 -3.161,9.526 -8.065,11.739 -7.206,3.25 -14.778,4.003 -22.479,1.895 C 62.117,27.197 55.663,22.33 49.399,17.183 48.196,16.195 47.095,15.083 45.964,14.045 M 75.467,-10.878 C 62.45,-11.621 51.887,-5.988 42.213,1.869 37.65,5.575 37.762,5.583 33.287,1.811 26.078,-4.267 18.031,-9.254 8.662,-10.457 c -12.665,-1.625 -25.245,-0.857 -35.81,7.812 -5.625,4.614 -8.627,10.333 -8.987,17.994 -0.568,12.125 8.525,20.601 16.753,23.515 14.623,5.177 28.542,3.802 41.514,-4.804 4.722,-3.133 9.197,-6.665 13.591,-10.252 1.709,-1.395 2.682,-1.285 4.219,0.114 6.969,6.34 14.569,11.714 23.429,15.192 9.199,3.61 18.414,3.251 27.798,0.827 7.109,-1.837 13.052,-5.251 17.115,-11.477 5.569,-8.536 4.917,-22.783 -4.884,-30.609 -8.234,-6.574 -17.598,-9.175 -27.933,-8.733"
             style="fill:#ffffff;fill-opacity:1;fill-rule:nonzero;stroke:none"
             id="path88" /></g><g
           id="g90"
           transform="translate(920.844,137.7845)"><path
             d="M 0,0 V 38.828"
             style="fill:none;stroke:#ffffff;stroke-width:8;stroke-linecap:butt;stroke-linejoin:miter;stroke-miterlimit:10;stroke-dasharray:none;stroke-opacity:1"
             id="path92" /></g><g
           id="g94"><g
             id="g96" /><g
             id="g108"><g
               clip-path="url(#clipPath100)"
               opacity="0.649994"
               id="g106"><g
                 transform="translate(1056.9008,435.2142)"
                 id="g104"><path
                   d="m 0,0 c -0.158,0.362 -0.316,0.725 -0.474,1.087 -9.387,-2.099 -18.897,-3.767 -28.129,-6.408 -11.466,-3.281 -22.04,-8.535 -30.276,-17.537 -0.918,-1.004 -1.536,-2.651 -1.578,-4.022 -0.176,-5.734 0.26,-11.501 -0.154,-17.211 -0.844,-11.628 -4.127,-22.39 -12.638,-30.954 -0.178,-0.179 -0.205,-0.507 -0.369,-0.945 0.754,0.042 1.37,0.013 1.961,0.119 8.339,1.502 16.327,4.079 23.786,8.121 17.236,9.343 28.522,23.416 33.608,42.424 C -11.686,-15.694 -7.915,-6.683 0,0"
                   style="fill:#ffffff;fill-opacity:1;fill-rule:nonzero;stroke:none"
                   id="path102" /></g></g></g></g><g
           id="g110"><g
             id="g112" /><g
             id="g124"><g
               clip-path="url(#clipPath116)"
               opacity="0.850006"
               id="g122"><g
                 transform="translate(989.8547,418.2094)"
                 id="g120"><path
                   d="m 0,0 c -7.571,-3.569 -15.637,-6.92 -23.23,-11.125 -4.41,-2.442 -8.248,-6.053 -11.981,-9.528 -2.313,-2.152 -3.676,-5.005 -3.406,-8.559 0.428,-5.62 0.72,-11.284 0.517,-16.909 -0.228,-6.303 -1.771,-12.417 -5.1,-17.868 -1.515,-2.482 -3.545,-4.649 -5.366,-6.991 15.452,-3.785 29.74,1.735 37.986,13.295 8.612,12.072 11.472,25.635 10.632,40.247 C -0.268,-11.88 0,-6.289 0,0"
                   style="fill:#ffffff;fill-opacity:1;fill-rule:nonzero;stroke:none"
                   id="path118" /></g></g></g></g><g
           id="g126"><g
             id="g128" /><g
             id="g140"><g
               clip-path="url(#clipPath132)"
               opacity="0.75"
               id="g138"><g
                 transform="translate(952.4893,414.8292)"
                 id="g136"><path
                   d="m 0,0 c 0.477,0.381 0.768,0.52 0.923,0.751 7.304,10.887 16.615,19.518 28.314,25.57 1.034,0.535 1.864,2.159 2.111,3.412 1.885,9.559 1.797,19.176 0.519,28.834 -0.356,0.034 -0.695,0.168 -0.953,0.076 C 19.426,54.567 9.315,48.197 0.286,40.078 -0.199,39.641 -0.435,38.386 -0.182,37.753 3.293,29.049 3.171,20.074 1.93,11.024 1.436,7.425 0.684,3.861 0,0"
                   style="fill:#ffffff;fill-opacity:1;fill-rule:nonzero;stroke:none"
                   id="path134" /></g></g></g></g><g
           id="g142"><g
             id="g144" /><g
             id="g156"><g
               clip-path="url(#clipPath148)"
               opacity="0.75"
               id="g154"><g
                 transform="translate(1022.452,451.3744)"
                 id="g152"><path
                   d="m 0,0 c -23.835,-5.429 -61.839,-29.902 -66.036,-42.268 13.449,9.135 27.264,17.005 43.14,21.392 -0.557,-3.628 -1.057,-6.879 -1.602,-10.421 5.801,3.834 11.085,7.509 16.563,10.866 2.618,1.605 4.608,3.618 5.301,6.478 C -1.562,-9.532 -0.92,-5.006 0,0"
                   style="fill:#ffffff;fill-opacity:1;fill-rule:nonzero;stroke:none"
                   id="path150" /></g></g></g></g><g
           id="g158"><g
             id="g160" /><g
             id="g172"><g
               clip-path="url(#clipPath164)"
               opacity="0.649994"
               id="g170"><g
                 transform="translate(857.0825,359.0521)"
                 id="g168"><path
                   d="m 0,0 c -3.327,0.797 -7.224,1.497 -10.974,2.668 -22.726,7.098 -38.721,21.361 -46.582,44.168 -1.934,5.61 -3.41,11.44 -5.95,16.76 -2.158,4.52 -5.546,8.453 -8.639,13.014 4.818,-0.744 9.748,-1.318 14.597,-2.29 12.041,-2.414 23.631,-6.108 34.004,-12.935 1.629,-1.071 3.127,-2.338 4.747,-3.424 5.07,-3.4 6.797,-7.91 6.224,-14.107 -0.877,-9.475 0.018,-19.007 3.731,-27.855 C -6.506,10.432 -3.007,5.352 0,0"
                   style="fill:#ffffff;fill-opacity:1;fill-rule:nonzero;stroke:none"
                   id="path166" /></g></g></g></g><g
           id="g174"><g
             id="g176" /><g
             id="g188"><g
               clip-path="url(#clipPath180)"
               opacity="0.850006"
               id="g186"><g
                 transform="translate(851.1249,417.6443)"
                 id="g184"><path
                   d="m 0,0 c 10.829,-3.778 21.832,-8.252 31.235,-15.841 5.67,-4.576 8.69,-9.876 7.102,-17.921 -1.72,-8.719 -0.441,-17.673 3.207,-25.917 1.704,-3.852 4.433,-7.25 6.639,-10.76 C 32.875,-74.544 17.25,-68.168 8.657,-54.174 0.633,-41.107 -0.79,-26.882 0.308,-12.039 0.598,-8.127 0.128,-4.159 0,0"
                   style="fill:#ffffff;fill-opacity:1;fill-rule:nonzero;stroke:none"
                   id="path182" /></g></g></g></g><g
           id="g190"><g
             id="g192" /><g
             id="g204"><g
               clip-path="url(#clipPath196)"
               opacity="0.550003"
               id="g202"><g
                 transform="translate(899.5148,414.6653)"
                 id="g200"><path
                   d="m 0,0 c -3.145,6.499 -3.852,12.603 -3.515,18.862 0.942,17.515 7.986,32.948 16.494,47.864 2.578,4.519 5.211,9.007 8.016,13.852 10.346,-17.222 20.35,-34 23.773,-53.645 C 46.337,17.93 46.332,8.953 42.047,-0.092 37.385,15.391 29.094,28.568 21.049,42.514 12.997,28.75 4.886,15.622 0,0"
                   style="fill:#ffffff;fill-opacity:1;fill-rule:nonzero;stroke:none"
                   id="path198" /></g></g></g></g><g
           id="g206"><g
             id="g208" /><g
             id="g220"><g
               clip-path="url(#clipPath212)"
               opacity="0.75"
               id="g218"><g
                 transform="translate(859.8411,473.834)"
                 id="g216"><path
                   d="m 0,0 c 12.429,-4.464 23.027,-11.095 32.48,-19.775 -5.376,-13.144 -3.676,-26.269 -0.287,-40.176 -1.788,2.349 -3.135,4.022 -4.378,5.768 -6.396,8.986 -14.712,15.695 -24.335,20.961 -1.303,0.713 -2.571,2.395 -2.896,3.844 C -1.577,-19.755 -1.285,-10.057 0,0"
                   style="fill:#ffffff;fill-opacity:1;fill-rule:nonzero;stroke:none"
                   id="path214" /></g></g></g></g><g
           id="g222"><g
             id="g224" /><g
             id="g236"><g
               clip-path="url(#clipPath228)"
               opacity="0.75"
               id="g234"><g
                 transform="translate(842.0457,430.3673)"
                 id="g232"><path
                   d="m 0,0 c 0.577,-3.305 1.155,-6.61 1.752,-10.025 -6.464,4.245 -12.804,8.209 -18.882,12.541 -1.529,1.09 -2.7,3.235 -3.193,5.115 -1.131,4.307 -1.741,8.75 -2.716,13.954 C 4.08,14.259 25.631,0.27 43.005,-20.374 36.167,-16.402 29.498,-12.094 22.443,-8.553 15.335,-4.987 7.844,-2.183 0.521,0.955 0.347,0.637 0.174,0.318 0,0"
                   style="fill:#ffffff;fill-opacity:1;fill-rule:nonzero;stroke:none"
                   id="path230" /></g></g></g></g><g
           id="g238"
           transform="translate(832.4958,200.4284)"><path
             d="m 0,0 c 0,0.202 -0.598,0.303 -1.793,0.303 -0.631,0 -0.946,-0.077 -0.946,-0.231 0,-0.044 0.328,-0.932 0.986,-2.664 0.043,-0.088 0.142,-0.362 0.295,-0.823 0.46,0.975 0.745,1.592 0.854,1.852 l 0.311,0.79 C -0.098,-0.28 0,-0.022 0,0 M 8.477,0.531 C 8.477,0.378 8.194,0.292 7.629,0.27 7.064,0.248 6.716,0.074 6.586,-0.251 6.303,-0.926 6.021,-1.643 5.738,-2.404 4.934,-4.599 3.716,-7.794 2.084,-11.989 c -0.107,-0.348 -0.281,-0.837 -0.519,-1.468 -0.152,-0.565 -0.359,-0.847 -0.621,-0.847 -0.239,0 -0.435,0.238 -0.588,0.714 -0.152,0.476 -0.806,2.014 -1.96,4.612 -0.284,0.649 -0.578,1.331 -0.883,2.046 -1.344,-3.002 -2.275,-5.198 -2.796,-6.59 -0.195,-0.521 -0.435,-0.782 -0.717,-0.782 -0.152,0 -0.282,0.137 -0.391,0.413 -0.044,0.127 -0.163,0.424 -0.359,0.891 -0.348,0.804 -0.848,1.988 -1.5,3.553 l -1.272,3.097 c -0.174,0.478 -0.457,1.184 -0.849,2.12 -0.694,1.695 -1.193,2.945 -1.497,3.75 -0.174,0.457 -0.446,0.695 -0.816,0.717 -0.89,0.044 -1.336,0.152 -1.336,0.326 0,0.152 0.195,0.229 0.587,0.229 h 0.293 0.522 1.467 2.673 0.718 c 0.282,0 0.424,-0.077 0.424,-0.229 C -7.336,0.367 -7.554,0.27 -7.988,0.27 -8.836,0.248 -9.26,0.161 -9.26,0.009 c 0,-0.066 0.043,-0.213 0.129,-0.442 0.086,-0.228 0.193,-0.527 0.322,-0.897 1.154,-3.128 2.395,-6.279 3.724,-9.451 l 1.857,4.269 c 0.065,0.131 0.152,0.337 0.261,0.62 -0.196,0.456 -0.544,1.26 -1.043,2.413 l -0.718,1.695 c -0.261,0.608 -0.533,1.228 -0.815,1.858 -0.152,0.152 -0.521,0.218 -1.108,0.196 -0.24,0 -0.359,0.086 -0.359,0.261 0,0.174 0.141,0.261 0.424,0.261 h 0.228 1.174 1.989 1.467 1.337 0.749 1.191 0.962 0.293 C 3.217,0.792 3.423,0.715 3.423,0.563 3.423,0.389 3.282,0.303 3,0.303 H 2.608 C 2.065,0.303 1.695,0.27 1.5,0.205 1.152,0.074 0.891,-0.187 0.717,-0.578 L 0.489,-1.1 c -0.239,-0.521 -0.598,-1.304 -1.076,-2.347 -0.196,-0.435 -0.326,-0.751 -0.391,-0.947 0.196,-0.5 0.523,-1.261 0.981,-2.282 0.588,-1.305 1.155,-2.643 1.701,-4.012 2.594,6.735 3.892,10.265 3.892,10.591 0,0.242 -0.209,0.363 -0.627,0.363 -0.681,0 -1.066,0.054 -1.154,0.164 -0.022,0.021 -0.033,0.065 -0.033,0.132 0,0.153 0.174,0.23 0.522,0.23 h 0.587 1.01 c 0.5,-0.022 0.957,-0.033 1.37,-0.033 0.804,0 1.206,-0.076 1.206,-0.228"
             style="fill:#f7f563;fill-opacity:1;fill-rule:nonzero;stroke:none"
             id="path240" /></g><g
           id="g242"
           transform="translate(866.1769,189.8581)"><path
             d="m 0,0 c 0,-0.022 -0.017,-0.16 -0.049,-0.415 -0.033,-0.254 -0.049,-0.481 -0.049,-0.679 v -1.89 c 0,-0.198 0.033,-0.415 0.098,-0.652 l -5.441,0.097 -6.228,-0.097 c -0.459,0 -0.688,0.086 -0.688,0.259 0,0.196 0.13,0.295 0.391,0.295 0.695,0 1.103,0.049 1.222,0.147 0.119,0.098 0.18,0.451 0.18,1.06 V 9.34 c 0,0.891 -0.077,1.364 -0.228,1.419 -0.153,0.054 -0.533,0.081 -1.142,0.081 -0.26,0 -0.391,0.076 -0.391,0.228 0,0.174 0.141,0.262 0.424,0.262 h 0.782 0.653 0.358 0.816 1.629 3.587 1.924 1.402 v -0.226 l 0.032,-0.481 c 0.044,-0.322 0.131,-1.286 0.261,-2.892 0.022,-0.107 0.033,-0.236 0.033,-0.385 0,-0.279 -0.076,-0.418 -0.227,-0.418 -0.195,0 -0.336,0.217 -0.422,0.652 -0.303,1.651 -0.877,2.619 -1.721,2.901 -0.476,0.152 -1.602,0.229 -3.376,0.229 H -7.825 V 4.613 h 0.776 c 1.38,0 2.231,0.114 2.554,0.342 0.324,0.229 0.539,0.853 0.647,1.875 0.066,0.608 0.196,0.913 0.391,0.913 0.218,0 0.327,-0.218 0.327,-0.652 0,-0.261 -0.016,-0.664 -0.049,-1.207 -0.033,-0.543 -0.049,-0.956 -0.049,-1.238 0,-1.414 0.024,-2.381 0.073,-2.902 0.016,-0.175 0.025,-0.316 0.025,-0.424 0,-0.348 -0.108,-0.522 -0.322,-0.522 -0.193,0 -0.322,0.271 -0.386,0.815 -0.128,1.174 -0.343,1.875 -0.643,2.103 -0.3,0.228 -1.147,0.343 -2.54,0.343 h -0.804 v -7.043 c 3.18,0.021 5.052,0.109 5.615,0.261 0.865,0.239 1.373,1.282 1.525,3.13 0.021,0.326 0.141,0.489 0.359,0.489 C -0.109,0.896 0,0.597 0,0"
             style="fill:#f7f563;fill-opacity:1;fill-rule:nonzero;stroke:none"
             id="path244" /></g><g
           id="g246"
           transform="translate(892.6188,189.2868)"><path
             d="m 0,0 c 0,-1.218 -0.021,-2.239 -0.065,-3.065 -0.13,-0.021 -0.293,-0.033 -0.49,-0.033 -0.021,0 -0.19,0.017 -0.505,0.049 C -1.375,-3.016 -1.782,-3 -2.282,-3 h -1.532 l -5.577,0.065 h -2.672 c -0.284,0 -0.424,0.072 -0.424,0.214 0,0.123 0.424,0.214 1.271,0.276 0.238,0.021 0.386,0.075 0.441,0.162 0.053,0.088 0.081,0.327 0.081,0.72 V 9.384 c 0,1.22 -0.098,1.863 -0.294,1.929 -0.087,0.043 -0.277,0.065 -0.571,0.065 -0.293,0 -0.483,0.011 -0.57,0.033 -0.239,0 -0.358,0.087 -0.358,0.261 0,0.152 0.141,0.229 0.425,0.229 h 4.523 0.754 c 0.415,0 0.623,-0.092 0.623,-0.276 0,-0.122 -0.359,-0.193 -1.076,-0.213 -0.348,-0.022 -0.555,-0.099 -0.619,-0.229 -0.066,-0.131 -0.098,-0.6 -0.098,-1.406 V -2.348 c 0.864,-0.022 1.492,-0.032 1.882,-0.032 2.337,0 3.798,0.228 4.382,0.684 0.475,0.37 0.779,1.152 0.909,2.348 0.043,0.522 0.163,0.783 0.358,0.783 C -0.142,1.435 0,0.956 0,0"
             style="fill:#f7f563;fill-opacity:1;fill-rule:nonzero;stroke:none"
             id="path248" /></g><g
           id="g250"
           transform="translate(918.8327,189.2868)"><path
             d="m 0,0 c 0,-1.218 -0.021,-2.239 -0.064,-3.065 -0.131,-0.021 -0.295,-0.033 -0.491,-0.033 -0.021,0 -0.189,0.017 -0.506,0.049 C -1.375,-3.016 -1.783,-3 -2.283,-3 h -1.531 l -5.577,0.065 h -2.672 c -0.284,0 -0.424,0.072 -0.424,0.214 0,0.123 0.424,0.214 1.271,0.276 0.238,0.021 0.386,0.075 0.441,0.162 0.053,0.088 0.081,0.327 0.081,0.72 V 9.384 c 0,1.22 -0.098,1.863 -0.294,1.929 -0.087,0.043 -0.277,0.065 -0.571,0.065 -0.293,0 -0.483,0.011 -0.57,0.033 -0.239,0 -0.358,0.087 -0.358,0.261 0,0.152 0.141,0.229 0.425,0.229 h 4.523 0.754 c 0.415,0 0.623,-0.092 0.623,-0.276 0,-0.122 -0.359,-0.193 -1.076,-0.213 -0.348,-0.022 -0.555,-0.099 -0.619,-0.229 -0.066,-0.131 -0.098,-0.6 -0.098,-1.406 V -2.348 c 0.864,-0.022 1.492,-0.032 1.882,-0.032 2.337,0 3.798,0.228 4.382,0.684 0.476,0.37 0.779,1.152 0.908,2.348 0.043,0.522 0.164,0.783 0.359,0.783 C -0.143,1.435 0,0.956 0,0"
             style="fill:#f7f563;fill-opacity:1;fill-rule:nonzero;stroke:none"
             id="path252" /></g><g
           id="g254"
           transform="translate(946.8395,200.9592)"><path
             d="m 0,0 c 0,-0.152 -0.24,-0.228 -0.718,-0.228 h -0.456 -0.359 c -0.196,0 -0.31,-0.044 -0.342,-0.131 -0.033,-0.088 -0.049,-0.382 -0.049,-0.885 v -12.019 c 0,-0.787 -0.012,-1.245 -0.033,-1.376 -0.022,-0.131 -0.119,-0.196 -0.294,-0.196 -0.239,0 -1.012,0.912 -2.317,2.736 -0.152,0.24 -0.389,0.567 -0.713,0.981 -0.043,0.066 -0.163,0.229 -0.358,0.491 -1.087,1.442 -3.054,4.152 -5.904,8.13 v -10.34 c 0,-0.81 0.114,-1.237 0.343,-1.28 0.228,-0.044 0.646,-0.066 1.255,-0.066 h 0.131 c 0.26,0 0.391,-0.071 0.391,-0.213 0,-0.163 -0.24,-0.244 -0.718,-0.244 -0.087,0 -0.445,0.022 -1.076,0.066 -0.326,0.021 -0.619,0.032 -0.88,0.032 -0.217,0 -0.435,-0.011 -0.652,-0.032 -0.413,-0.044 -0.858,-0.066 -1.337,-0.066 -0.348,0 -0.521,0.081 -0.521,0.244 0,0.142 0.206,0.213 0.619,0.213 h 0.294 l 0.423,0.033 c 0.522,0.044 0.793,0.142 0.816,0.296 0.021,0.086 0.032,0.404 0.032,0.952 v 9.029 c 0,1.642 -0.098,2.627 -0.293,2.956 -0.262,0.437 -0.772,0.656 -1.533,0.656 -0.543,0 -0.814,0.092 -0.814,0.275 0,0.143 0.14,0.215 0.423,0.215 h 0.13 1.794 0.424 0.587 1.206 l 7.694,-10.595 v 9.062 c 0,0.543 -0.021,0.858 -0.064,0.946 -0.044,0.086 -0.218,0.13 -0.523,0.13 h -0.684 -0.195 c -0.414,0 -0.62,0.081 -0.62,0.243 0,0.102 0.103,0.162 0.31,0.183 0.206,0.02 0.939,0.031 2.2,0.031 1.195,0 1.892,-0.01 2.087,-0.029 C -0.099,0.181 0,0.114 0,0"
             style="fill:#f7f563;fill-opacity:1;fill-rule:nonzero;stroke:none"
             id="path256" /></g><g
           id="g258"
           transform="translate(973.1188,189.8581)"><path
             d="m 0,0 c 0,-0.022 -0.017,-0.16 -0.049,-0.415 -0.033,-0.254 -0.049,-0.481 -0.049,-0.679 v -1.89 c 0,-0.198 0.033,-0.415 0.098,-0.652 l -5.441,0.097 -6.228,-0.097 c -0.459,0 -0.688,0.086 -0.688,0.259 0,0.196 0.129,0.295 0.391,0.295 0.695,0 1.103,0.049 1.223,0.147 0.119,0.098 0.179,0.451 0.179,1.06 V 9.34 c 0,0.891 -0.077,1.364 -0.228,1.419 -0.152,0.054 -0.533,0.081 -1.142,0.081 -0.26,0 -0.391,0.076 -0.391,0.228 0,0.174 0.141,0.262 0.424,0.262 h 0.783 0.651 0.36 0.814 1.631 3.586 1.924 1.402 v -0.226 l 0.032,-0.481 c 0.044,-0.322 0.131,-1.286 0.261,-2.892 0.021,-0.107 0.033,-0.236 0.033,-0.385 0,-0.279 -0.076,-0.418 -0.227,-0.418 -0.196,0 -0.336,0.217 -0.422,0.652 -0.303,1.651 -0.877,2.619 -1.721,2.901 -0.476,0.152 -1.602,0.229 -3.376,0.229 H -7.825 V 4.613 h 0.776 c 1.38,0 2.231,0.114 2.555,0.342 0.323,0.229 0.538,0.853 0.646,1.875 0.066,0.608 0.196,0.913 0.392,0.913 0.217,0 0.326,-0.218 0.326,-0.652 0,-0.261 -0.016,-0.664 -0.05,-1.207 -0.032,-0.543 -0.049,-0.956 -0.049,-1.238 0,-1.414 0.025,-2.381 0.075,-2.902 0.015,-0.175 0.024,-0.316 0.024,-0.424 0,-0.348 -0.108,-0.522 -0.322,-0.522 -0.193,0 -0.321,0.271 -0.386,0.815 -0.129,1.174 -0.343,1.875 -0.642,2.103 -0.301,0.228 -1.148,0.343 -2.541,0.343 h -0.804 v -7.043 c 3.18,0.021 5.052,0.109 5.615,0.261 0.865,0.239 1.373,1.282 1.525,3.13 0.022,0.326 0.141,0.489 0.359,0.489 C -0.109,0.896 0,0.597 0,0"
             style="fill:#f7f563;fill-opacity:1;fill-rule:nonzero;stroke:none"
             id="path260" /></g><g
           id="g262"
           transform="translate(997.4099,190.5388)"><path
             d="m 0,0 c 0,-1.212 -0.521,-2.251 -1.565,-3.117 -1.043,-0.865 -2.304,-1.298 -3.783,-1.298 -1.108,0 -2.25,0.337 -3.423,1.013 -0.13,0.042 -0.217,0.063 -0.261,0.063 -0.13,0 -0.206,-0.103 -0.228,-0.307 -0.022,-0.205 -0.054,-0.385 -0.097,-0.539 -0.044,-0.153 -0.153,-0.23 -0.327,-0.23 -0.217,0 -0.326,0.109 -0.326,0.326 0,0.044 0.022,0.37 0.066,0.979 0.043,0.608 0.064,1.13 0.064,1.565 v 0.831 0.831 c 0,0.413 0.109,0.62 0.326,0.62 0.217,0 0.38,-0.338 0.49,-1.011 0.413,-2.392 1.695,-3.586 3.847,-3.586 1.825,0 2.738,0.908 2.738,2.726 0,0.801 -0.216,1.45 -0.651,1.948 -0.435,0.498 -1.283,1.061 -2.544,1.688 -1.651,0.822 -2.706,1.471 -3.162,1.948 -0.587,0.627 -0.881,1.406 -0.881,2.337 0,1.19 0.435,2.17 1.305,2.938 0.869,0.768 1.967,1.152 3.293,1.152 0.826,0 1.706,-0.25 2.64,-0.75 0.109,-0.065 0.197,-0.098 0.261,-0.098 0.153,0 0.25,0.158 0.294,0.473 0.043,0.315 0.174,0.473 0.392,0.473 0.217,0 0.325,-0.109 0.325,-0.326 0,-0.044 -0.011,-0.13 -0.032,-0.261 -0.044,-0.348 -0.066,-0.794 -0.066,-1.337 0,-0.326 0.034,-0.913 0.098,-1.76 0.021,-0.088 0.033,-0.186 0.033,-0.294 0,-0.261 -0.087,-0.391 -0.261,-0.391 -0.196,0 -0.337,0.193 -0.423,0.581 -0.197,0.948 -0.593,1.708 -1.191,2.279 -0.597,0.571 -1.299,0.857 -2.102,0.857 -1.566,0 -2.348,-0.834 -2.348,-2.5 0,-0.736 0.206,-1.342 0.619,-1.818 C -6.663,5.745 -6.424,5.54 -6.162,5.389 -5.901,5.237 -5.142,4.858 -3.88,4.252 -2.468,3.56 -1.468,2.895 -0.881,2.256 -0.294,1.617 0,0.865 0,0"
             style="fill:#f7f563;fill-opacity:1;fill-rule:nonzero;stroke:none"
             id="path264" /></g><g
           id="g266"
           transform="translate(1021.9284,190.5388)"><path
             d="m 0,0 c 0,-1.212 -0.521,-2.251 -1.565,-3.117 -1.043,-0.865 -2.304,-1.298 -3.783,-1.298 -1.108,0 -2.25,0.337 -3.423,1.013 -0.13,0.042 -0.217,0.063 -0.261,0.063 -0.13,0 -0.206,-0.103 -0.228,-0.307 -0.022,-0.205 -0.054,-0.385 -0.097,-0.539 -0.044,-0.153 -0.153,-0.23 -0.327,-0.23 -0.217,0 -0.326,0.109 -0.326,0.326 0,0.044 0.022,0.37 0.066,0.979 0.043,0.608 0.064,1.13 0.064,1.565 v 0.831 0.831 c 0,0.413 0.109,0.62 0.326,0.62 0.217,0 0.38,-0.338 0.49,-1.011 0.413,-2.392 1.695,-3.586 3.847,-3.586 1.825,0 2.738,0.908 2.738,2.726 0,0.801 -0.216,1.45 -0.651,1.948 -0.435,0.498 -1.283,1.061 -2.544,1.688 -1.651,0.822 -2.706,1.471 -3.162,1.948 -0.587,0.627 -0.881,1.406 -0.881,2.337 0,1.19 0.435,2.17 1.305,2.938 0.869,0.768 1.967,1.152 3.293,1.152 0.826,0 1.706,-0.25 2.64,-0.75 0.109,-0.065 0.197,-0.098 0.261,-0.098 0.153,0 0.25,0.158 0.294,0.473 0.043,0.315 0.174,0.473 0.392,0.473 0.217,0 0.325,-0.109 0.325,-0.326 0,-0.044 -0.011,-0.13 -0.032,-0.261 -0.044,-0.348 -0.066,-0.794 -0.066,-1.337 0,-0.326 0.034,-0.913 0.098,-1.76 0.021,-0.088 0.033,-0.186 0.033,-0.294 0,-0.261 -0.087,-0.391 -0.261,-0.391 -0.196,0 -0.337,0.193 -0.423,0.581 -0.197,0.948 -0.593,1.708 -1.191,2.279 -0.597,0.571 -1.299,0.857 -2.102,0.857 -1.566,0 -2.348,-0.834 -2.348,-2.5 0,-0.736 0.206,-1.342 0.619,-1.818 C -6.663,5.745 -6.424,5.54 -6.162,5.389 -5.901,5.237 -5.142,4.858 -3.88,4.252 -2.468,3.56 -1.468,2.895 -0.881,2.256 -0.294,1.617 0,0.865 0,0"
             style="fill:#f7f563;fill-opacity:1;fill-rule:nonzero;stroke:none"
             id="path268" /></g><g
           id="g270"
           transform="translate(569.1396,313.6577)"><path
             d="m 0,0 c 0,-126.44 -102.5,-228.94 -228.94,-228.94 -126.44,0 -228.939,102.5 -228.939,228.94 0,126.44 102.499,228.94 228.939,228.94 C -102.5,228.94 0,126.44 0,0"
             style="fill:#3a6244;fill-opacity:1;fill-rule:nonzero;stroke:none"
             id="path272" /></g><g
           id="g274"
           transform="translate(208.2859,213.0722)"><path
             d="M 0,0 C 0,3.972 -2.243,5.959 -6.73,5.959 H -7.906 V -5.339 c 0,-0.451 0.093,-0.722 0.28,-0.816 0.187,-0.093 0.729,-0.14 1.626,-0.14 3.999,0 6,2.098 6,6.295 m -1.186,12.255 c 0,2.47 -0.56,4.024 -1.68,4.661 -0.636,0.374 -1.7,0.561 -3.192,0.561 -0.636,0 -1.101,-0.019 -1.4,-0.056 L -7.906,17.365 V 6.919 c 2.016,0.037 3.397,0.224 4.144,0.561 1.717,0.786 2.576,2.377 2.576,4.775 M 4.912,-0.423 c 0,-1.732 -0.631,-3.162 -1.892,-4.291 -1.261,-1.129 -3.001,-1.863 -5.222,-2.202 -1.319,-0.189 -4.235,-0.283 -8.753,-0.283 h -3.445 -0.113 -0.79 c -0.264,-0.037 -0.395,0.094 -0.395,0.395 0,0.227 0.075,0.359 0.226,0.396 0.149,0.037 0.601,0.057 1.355,0.057 0.752,0 1.185,0.075 1.299,0.226 0.112,0.149 0.169,0.621 0.169,1.411 v 20.385 c 0,0.978 -0.057,1.553 -0.169,1.722 -0.114,0.169 -0.716,0.272 -1.807,0.311 -0.79,0.037 -1.186,0.169 -1.186,0.395 0,0.301 0.414,0.452 1.242,0.452 h 0.961 c 0.413,0 1.524,-0.039 3.331,-0.114 h 2.709 c 2.598,-0.037 4.236,-0.094 4.914,-0.169 0.903,-0.075 1.73,-0.245 2.483,-0.508 2.712,-0.979 4.066,-2.692 4.066,-5.139 0,-3.425 -2.635,-5.458 -7.904,-6.098 L -3.954,6.354 C -1.206,6.316 0.96,5.685 2.541,4.463 4.122,3.239 4.912,1.61 4.912,-0.423"
             style="fill:#ffffff;fill-opacity:1;fill-rule:nonzero;stroke:none"
             id="path276" /></g><g
           id="g278"
           transform="translate(249.5606,215.0774)"><path
             d="M 0,0 -3.631,9.649 C -4.547,7.392 -5.804,4.176 -7.405,0 Z m 11.464,-8.864 c 0,-0.226 -0.376,-0.34 -1.128,-0.34 H 9.94 6.439 4.858 2.204 0.51 -0.506 -0.789 c -0.677,0 -1.017,0.149 -1.017,0.449 0,0.299 0.678,0.467 2.033,0.505 1.618,0.037 2.429,0.224 2.429,0.561 0,0.074 -0.113,0.429 -0.339,1.065 -0.076,0.299 -0.509,1.551 -1.299,3.758 L 0.341,-0.96 h -8.075 c -1.544,-3.877 -2.316,-6.117 -2.316,-6.719 0,-0.339 0.226,-0.527 0.678,-0.565 L -8.638,-8.3 h 0.847 l 0.509,-0.169 c 0.451,0 0.677,-0.115 0.677,-0.342 0,-0.262 -0.396,-0.393 -1.186,-0.393 -0.112,0 -0.781,0.029 -2.004,0.085 -1.224,0.056 -2.307,0.084 -3.248,0.084 h -0.507 l -0.509,-0.084 -0.62,-0.085 h -0.114 c -0.601,0 -0.903,0.114 -0.903,0.34 0,0.264 0.245,0.415 0.734,0.453 0.678,0.037 1.129,0.074 1.355,0.114 0.64,0.112 1.053,0.281 1.242,0.509 0.226,0.112 1.148,2.264 2.767,6.453 0.64,1.699 1.261,3.283 1.865,4.755 0.225,0.528 0.376,0.924 0.451,1.189 0.075,0.265 0.226,0.66 0.452,1.189 0.64,1.548 1.543,3.887 2.711,7.02 l 0.851,2.37 0.39,1.018 c 0.226,0.566 0.452,0.847 0.678,0.847 0.113,0 0.357,-0.527 0.734,-1.581 1.129,-2.748 4.046,-10.014 8.751,-21.796 0.452,-1.167 0.884,-1.788 1.299,-1.864 0.112,-0.037 0.715,-0.093 1.807,-0.169 0.715,-0.038 1.073,-0.207 1.073,-0.507"
             style="fill:#ffffff;fill-opacity:1;fill-rule:nonzero;stroke:none"
             id="path280" /></g><g
           id="g282"
           transform="translate(302.0194,211.0128)"><path
             d="m 0,0 c 0,-2.11 -0.038,-3.878 -0.114,-5.309 -0.226,-0.037 -0.507,-0.056 -0.847,-0.056 -0.037,0 -0.329,0.029 -0.875,0.084 -0.546,0.057 -1.252,0.086 -2.118,0.086 h -2.653 l -9.656,0.112 h -4.63 c -0.491,0 -0.734,0.123 -0.734,0.371 0,0.212 0.734,0.371 2.202,0.477 0.414,0.037 0.668,0.131 0.762,0.281 0.094,0.151 0.141,0.567 0.141,1.247 v 18.959 c 0,2.112 -0.169,3.225 -0.507,3.339 -0.152,0.075 -0.481,0.114 -0.989,0.114 -0.508,0 -0.838,0.018 -0.989,0.057 -0.414,0 -0.62,0.15 -0.62,0.452 0,0.264 0.245,0.396 0.738,0.396 h 7.832 1.306 c 0.718,0 1.078,-0.158 1.078,-0.477 0,-0.211 -0.621,-0.334 -1.863,-0.37 -0.603,-0.038 -0.96,-0.171 -1.074,-0.397 -0.112,-0.226 -0.169,-1.037 -0.169,-2.433 V -4.066 c 1.499,-0.038 2.586,-0.057 3.261,-0.057 4.046,0 6.576,0.395 7.589,1.186 0.823,0.64 1.348,1.995 1.573,4.066 0.075,0.903 0.283,1.355 0.621,1.355 C -0.246,2.484 0,1.655 0,0"
             style="fill:#ffffff;fill-opacity:1;fill-rule:nonzero;stroke:none"
             id="path284" /></g><g
           id="g286"
           transform="translate(337.1951,215.0774)"><path
             d="M 0,0 -3.631,9.649 C -4.547,7.392 -5.804,4.176 -7.405,0 Z m 11.464,-8.864 c 0,-0.226 -0.376,-0.34 -1.128,-0.34 H 9.94 6.439 4.858 2.204 0.51 -0.506 -0.789 c -0.677,0 -1.017,0.149 -1.017,0.449 0,0.299 0.678,0.467 2.033,0.505 1.618,0.037 2.429,0.224 2.429,0.561 0,0.074 -0.113,0.429 -0.339,1.065 -0.076,0.299 -0.509,1.551 -1.299,3.758 L 0.341,-0.96 h -8.075 c -1.544,-3.877 -2.316,-6.117 -2.316,-6.719 0,-0.339 0.226,-0.527 0.678,-0.565 L -8.638,-8.3 h 0.847 l 0.509,-0.169 c 0.451,0 0.677,-0.115 0.677,-0.342 0,-0.262 -0.395,-0.393 -1.186,-0.393 -0.112,0 -0.781,0.029 -2.004,0.085 -1.224,0.056 -2.307,0.084 -3.248,0.084 h -0.507 l -0.509,-0.084 -0.62,-0.085 h -0.114 c -0.601,0 -0.903,0.114 -0.903,0.34 0,0.264 0.245,0.415 0.734,0.453 0.678,0.037 1.129,0.074 1.355,0.114 0.64,0.112 1.053,0.281 1.242,0.509 0.226,0.112 1.148,2.264 2.767,6.453 0.64,1.699 1.261,3.283 1.865,4.755 0.225,0.528 0.376,0.924 0.451,1.189 0.075,0.265 0.226,0.66 0.452,1.189 0.64,1.548 1.543,3.887 2.711,7.02 l 0.851,2.37 0.39,1.018 c 0.226,0.566 0.452,0.847 0.678,0.847 0.113,0 0.357,-0.527 0.734,-1.581 1.129,-2.748 4.046,-10.014 8.751,-21.796 0.452,-1.167 0.884,-1.788 1.299,-1.864 0.112,-0.037 0.715,-0.093 1.807,-0.169 0.715,-0.038 1.073,-0.207 1.073,-0.507"
             style="fill:#ffffff;fill-opacity:1;fill-rule:nonzero;stroke:none"
             id="path288" /></g><g
           id="g290"
           transform="translate(392.7603,231.2278)"><path
             d="m 0,0 c 0,-0.264 -0.415,-0.395 -1.243,-0.395 h -0.79 -0.621 c -0.339,0 -0.537,-0.077 -0.592,-0.228 -0.057,-0.152 -0.085,-0.661 -0.085,-1.532 V -22.97 c 0,-1.363 -0.02,-2.157 -0.057,-2.383 -0.038,-0.226 -0.207,-0.34 -0.509,-0.34 -0.415,0 -1.753,1.58 -4.014,4.739 -0.262,0.415 -0.673,0.981 -1.235,1.7 -0.075,0.112 -0.281,0.395 -0.618,0.849 -1.883,2.498 -5.292,7.19 -10.225,14.08 v -17.907 c 0,-1.403 0.197,-2.142 0.592,-2.218 0.395,-0.076 1.12,-0.114 2.175,-0.114 h 0.226 c 0.452,0 0.678,-0.123 0.678,-0.369 0,-0.281 -0.415,-0.421 -1.243,-0.421 -0.15,0 -0.772,0.038 -1.864,0.113 -0.564,0.037 -1.073,0.056 -1.524,0.056 -0.376,0 -0.753,-0.019 -1.13,-0.056 -0.715,-0.075 -1.487,-0.113 -2.314,-0.113 -0.603,0 -0.905,0.14 -0.905,0.421 0,0.246 0.359,0.369 1.074,0.369 h 0.507 l 0.735,0.057 c 0.903,0.075 1.374,0.246 1.412,0.513 0.037,0.151 0.056,0.7 0.056,1.648 v 15.639 c 0,2.842 -0.17,4.548 -0.508,5.118 -0.452,0.758 -1.336,1.137 -2.654,1.137 -0.941,0 -1.412,0.159 -1.412,0.476 0,0.247 0.245,0.371 0.735,0.371 h 0.225 3.106 0.734 1.016 2.09 l 13.326,-18.348 v 15.694 c 0,0.941 -0.037,1.487 -0.113,1.638 -0.077,0.149 -0.377,0.226 -0.904,0.226 h -1.186 -0.338 c -0.715,0 -1.073,0.14 -1.073,0.421 0,0.176 0.178,0.281 0.536,0.316 0.357,0.035 1.629,0.053 3.812,0.053 2.07,0 3.275,-0.017 3.614,-0.05 C -0.169,0.312 0,0.197 0,0"
             style="fill:#ffffff;fill-opacity:1;fill-rule:nonzero;stroke:none"
             id="path292" /></g><g
           id="g294"
           transform="translate(437.4255,214.3438)"><path
             d="m 0,0 c 0,-0.112 -0.02,-0.434 -0.057,-0.96 -0.151,-2.033 -0.226,-3.464 -0.226,-4.292 0,-0.564 0.057,-1.393 0.169,-2.483 v -0.396 c 0,-0.376 -0.15,-0.565 -0.452,-0.565 -0.301,0 -0.601,0.319 -0.903,0.961 l -0.508,1.072 c -0.037,0.075 -0.094,0.187 -0.17,0.339 -1.693,-1.657 -4.027,-2.485 -7.001,-2.485 -3.803,0 -6.965,1.268 -9.486,3.803 -2.523,2.537 -3.783,5.72 -3.783,9.552 0,3.831 1.166,6.977 3.5,9.438 2.334,2.46 5.309,3.69 8.923,3.69 2.822,0 5.194,-0.735 7.114,-2.202 0.149,-0.15 0.301,-0.226 0.452,-0.226 0.187,0 0.357,0.245 0.507,0.734 0.263,0.827 0.583,1.242 0.96,1.242 0.263,0 0.395,-0.15 0.395,-0.452 0,-0.037 -0.037,-0.207 -0.112,-0.507 -0.226,-1.281 -0.358,-3.182 -0.395,-5.704 -0.039,-1.581 -0.246,-2.371 -0.622,-2.371 -0.301,0 -0.507,0.28 -0.621,0.842 -0.377,2.018 -0.829,3.514 -1.355,4.487 -1.205,2.131 -3.181,3.198 -5.928,3.198 -2.298,0 -4.123,-1.104 -5.478,-3.309 -1.355,-2.206 -2.033,-5.197 -2.033,-8.974 0,-3.775 0.752,-6.766 2.259,-8.973 1.504,-2.204 3.537,-3.308 6.098,-3.308 1.957,0 3.586,0.659 4.884,1.979 1.299,1.32 2.155,3.151 2.57,5.493 0.187,0.967 0.432,1.45 0.733,1.45 C -0.189,1.073 0,0.715 0,0"
             style="fill:#ffffff;fill-opacity:1;fill-rule:nonzero;stroke:none"
             id="path296" /></g><g
           id="g298"
           transform="translate(481.6386,212.0028)"><path
             d="m 0,0 c 0,-0.04 -0.029,-0.279 -0.085,-0.719 -0.056,-0.44 -0.084,-0.833 -0.084,-1.177 V -5.17 c 0,-0.341 0.055,-0.718 0.169,-1.129 l -9.423,0.17 -10.787,-0.17 c -0.794,0 -1.191,0.151 -1.191,0.449 0,0.341 0.225,0.511 0.677,0.511 1.204,0 1.91,0.085 2.118,0.255 0.206,0.169 0.31,0.78 0.31,1.835 v 19.424 c 0,1.543 -0.132,2.363 -0.395,2.456 -0.264,0.094 -0.923,0.142 -1.976,0.142 -0.452,0 -0.678,0.131 -0.678,0.395 0,0.301 0.244,0.452 0.735,0.452 h 1.355 1.129 0.621 1.412 2.823 6.211 3.331 2.429 v -0.39 l 0.056,-0.834 c 0.076,-0.556 0.227,-2.226 0.453,-5.008 0.037,-0.185 0.055,-0.409 0.055,-0.668 0,-0.482 -0.131,-0.723 -0.393,-0.723 -0.338,0 -0.581,0.375 -0.731,1.129 -0.524,2.86 -1.518,4.537 -2.98,5.026 -0.824,0.263 -2.774,0.395 -5.845,0.395 h -2.869 V 7.988 h 1.346 c 2.388,0 3.862,0.197 4.423,0.592 0.56,0.395 0.933,1.478 1.121,3.248 0.112,1.053 0.338,1.581 0.678,1.581 0.375,0 0.564,-0.377 0.564,-1.13 0,-0.451 -0.029,-1.149 -0.084,-2.089 C -5.562,9.249 -5.59,8.533 -5.59,8.045 c 0,-2.448 0.042,-4.123 0.127,-5.026 0.028,-0.303 0.042,-0.547 0.042,-0.735 0,-0.603 -0.186,-0.903 -0.556,-0.903 -0.335,0 -0.558,0.471 -0.669,1.412 -0.224,2.033 -0.595,3.247 -1.115,3.642 -0.52,0.395 -1.986,0.593 -4.399,0.593 h -1.393 V -5.17 c 5.508,0.039 8.751,0.189 9.725,0.452 1.499,0.414 2.379,2.221 2.642,5.421 0.037,0.565 0.244,0.848 0.62,0.848 C -0.189,1.551 0,1.034 0,0"
             style="fill:#ffffff;fill-opacity:1;fill-rule:nonzero;stroke:none"
             id="path300" /></g><g
           id="g302"
           transform="translate(258.2407,317.0813)"><path
             d="m 0,0 c 0,11.166 -4.842,16.751 -14.524,16.751 -2.577,0 -4.334,-0.351 -5.272,-1.055 -0.937,-0.702 -1.405,-1.951 -1.405,-3.747 v -29.753 c 7.496,-0.079 12.903,1.288 16.224,4.099 C -1.659,-10.893 0,-6.326 0,0 m 24.248,-58.686 c 0,-3.279 -2.734,-4.919 -8.2,-4.919 -6.091,0 -10.856,2.537 -14.291,7.613 -1.484,2.185 -2.44,4.294 -2.869,6.326 -0.43,2.029 -1.074,7.184 -1.933,15.462 -0.469,4.996 -2.07,8.531 -4.803,10.602 -2.735,2.067 -7.186,3.18 -13.353,3.337 v -36.898 c 0,-1.563 1.248,-2.539 3.748,-2.928 0.704,-0.079 2.498,-0.157 5.388,-0.235 1.015,0 1.523,-0.313 1.523,-0.937 0,-0.702 -0.664,-1.054 -1.991,-1.054 h -1.406 -10.191 -5.973 -5.389 -4.569 c -1.718,0 -2.577,0.352 -2.577,1.054 0,0.545 1.131,0.859 3.397,0.937 3.67,0.078 5.662,0.546 5.974,1.405 0.312,0.391 0.469,1.914 0.469,4.569 v 64.661 c 0,3.122 -0.334,4.997 -0.996,5.622 -0.664,0.624 -2.675,0.976 -6.032,1.055 -1.953,0 -2.929,0.352 -2.929,1.054 0,0.78 0.624,1.17 1.875,1.17 0.234,0 0.585,-0.04 1.054,-0.115 l 15.579,-0.352 c 1.561,0 3.749,0.05 6.56,0.156 3.122,0.207 5.309,0.311 6.559,0.311 7.263,0 13.022,-1.62 17.278,-4.861 4.256,-3.241 6.384,-7.633 6.384,-13.177 0,-5.467 -2.186,-9.977 -6.559,-13.529 C 1.6,-15.912 -4.334,-18 -11.83,-18.625 c -0.703,-0.079 -1.095,-0.195 -1.172,-0.352 0,-0.314 0.391,-0.47 1.172,-0.47 8.2,-1.409 13.841,-4.288 16.926,-8.633 3.085,-4.346 5.134,-12.197 6.15,-23.552 0.624,-6.421 2.811,-9.631 6.559,-9.631 1.172,0 1.757,0.235 1.757,0.703 0,0.077 -0.04,0.156 -0.117,0.234 -0.391,0.859 -0.585,1.561 -0.585,2.108 0,1.641 0.858,2.461 2.577,2.461 1.874,0 2.811,-0.977 2.811,-2.929"
             style="fill:#ffffff;fill-opacity:1;fill-rule:nonzero;stroke:none"
             id="path304" /></g><g
           id="g306"
           transform="translate(457.6683,274.8007)"><path
             d="m 0,0 c 0,-0.319 -0.08,-2.267 -0.239,-5.844 -0.16,-3.578 -0.237,-6.997 -0.237,-10.255 v -3.936 c -7.794,0.476 -23.215,0.715 -46.272,0.715 h -8.227 -5.486 -1.193 c -1.51,0 -2.265,0.319 -2.265,0.96 0,0.427 0.238,0.676 0.715,0.747 0.238,0 1.748,0.106 4.532,0.321 2.066,0.159 3.318,0.596 3.756,1.315 0.436,0.717 0.656,2.592 0.656,5.622 v 67.223 c 0,2.312 -0.34,3.688 -1.014,4.128 -0.676,0.437 -2.843,0.658 -6.499,0.658 -1.273,0 -1.908,0.337 -1.908,1.013 0,0.674 0.874,1.013 2.623,1.013 h 20.394 13.475 16.695 c 2.385,0 4.571,0.159 6.56,0.478 0.157,-3.419 0.515,-8.15 1.072,-14.191 l 0.477,-5.129 c 0.079,-0.398 0.12,-0.915 0.12,-1.55 0,-0.795 -0.358,-1.192 -1.074,-1.192 -0.875,0 -1.512,0.998 -1.908,3 -1.511,7.199 -3.977,11.761 -7.394,13.682 -2.545,1.439 -9.224,2.159 -20.034,2.159 h -9.778 V 25.878 h 2.861 c 8.903,0 14.33,0.674 16.279,2.026 1.946,1.352 3.279,5.286 3.995,11.806 0.157,1.67 0.595,2.504 1.311,2.504 0.874,0 1.312,-0.715 1.312,-2.145 0,-1.432 -0.08,-3.539 -0.239,-6.321 -0.16,-2.784 -0.239,-4.89 -0.239,-6.32 0,-8.509 0.127,-14.351 0.383,-17.53 0.063,-0.797 0.095,-1.473 0.095,-2.028 0,-1.034 -0.437,-1.551 -1.306,-1.551 -0.555,0 -0.93,0.339 -1.128,1.015 -0.197,0.674 -0.534,2.88 -1.007,6.618 -0.634,4.69 -2.574,7.591 -5.817,8.705 -1.426,0.478 -5.146,0.715 -11.158,0.715 h -5.342 v -39.949 c 17.488,0 27.743,0.352 30.766,1.06 5.247,1.178 8.229,6.204 8.944,15.077 0.159,1.961 0.674,2.944 1.55,2.944 C -0.399,2.504 0,1.669 0,0"
             style="fill:#ffffff;fill-opacity:1;fill-rule:nonzero;stroke:none"
             id="path308" /></g><g
           id="g310"
           transform="translate(332.5231,241.9885)"><path
             d="m 0,0 c 0.241,9.636 -1.1,19.259 -2.482,28.772 -0.359,2.472 -0.73,4.944 -1.095,7.416 -0.333,2.249 -0.976,4.078 -1.999,6.101 -1.818,3.593 -5.56,5.484 -9.222,6.754 -5.268,1.828 -10.898,2.339 -16.342,3.419 -1.571,0.312 -2.243,-2.097 -0.664,-2.41 4.609,-0.916 9.304,-1.45 13.851,-2.663 3.442,-0.917 7.987,-2.374 9.874,-5.685 1.044,-1.832 1.716,-3.64 2.023,-5.723 0.341,-2.314 0.689,-4.627 1.028,-6.941 0.685,-4.687 1.338,-9.38 1.82,-14.093 C -2.7,9.982 -2.375,4.992 -2.5,0 -2.54,-1.609 -0.04,-1.609 0,0"
             style="fill:#ffffff;fill-opacity:1;fill-rule:nonzero;stroke:none"
             id="path312" /></g><g
           id="g314"
           transform="translate(368.674,294.3012)"><path
             d="m 0,0 c -5.443,-1.081 -11.074,-1.591 -16.342,-3.419 -2.214,-0.768 -4.392,-1.75 -6.255,-3.189 -1.761,-1.358 -2.765,-3.04 -3.696,-5.03 -0.985,-2.107 -1.226,-4.297 -1.523,-6.579 -0.308,-2.367 -0.577,-4.739 -0.825,-7.114 -0.499,-4.782 -0.913,-9.573 -1.318,-14.365 -0.361,-4.257 -0.678,-8.523 -1.181,-12.766 -0.189,-1.595 2.313,-1.581 2.5,0 0.924,7.8 1.38,15.656 2.133,23.474 0.431,4.472 0.82,8.987 1.558,13.421 0.337,2.028 1.322,4.428 2.731,5.955 1.473,1.597 3.549,2.643 5.549,3.418 5.529,2.144 11.557,2.636 17.334,3.783 C 2.241,-2.098 1.574,0.313 0,0"
             style="fill:#ffffff;fill-opacity:1;fill-rule:nonzero;stroke:none"
             id="path316" /></g><g
           id="g318"
           transform="translate(298.039,141.9299)"><path
             d="m 0,0 c 11.424,0.027 20.422,5.512 28.647,12.751 1.164,1.024 0.658,1.806 -0.31,2.502 -5.245,3.769 -10.245,7.968 -15.812,11.182 -9.945,5.742 -20.38,5.417 -30.572,0.468 -4.432,-2.152 -7.074,-5.857 -6.986,-11.122 0.089,-5.335 3.16,-8.754 7.333,-11.319 C -12.307,1.146 -6.276,0.042 0,0 M 45.961,14.044 C 50.672,8.343 59.707,2.946 68.416,0.898 c 8.499,-1.999 16.755,-0.925 24.389,3.323 4.411,2.455 7.799,5.987 7.84,11.528 0.043,5.739 -3.161,9.526 -8.065,11.738 -7.205,3.25 -14.777,4.003 -22.477,1.895 -7.99,-2.187 -14.444,-7.054 -20.708,-12.2 -1.202,-0.988 -2.304,-2.1 -3.434,-3.138 M 75.462,-10.877 C 62.445,-11.62 51.883,-5.987 42.21,1.869 37.648,5.575 37.759,5.582 33.285,1.811 26.076,-4.267 18.029,-9.254 8.661,-10.456 c -12.664,-1.625 -25.243,-0.857 -35.808,7.811 -5.623,4.614 -8.626,10.332 -8.985,17.993 -0.569,12.124 8.524,20.6 16.751,23.513 14.622,5.176 28.54,3.802 41.512,-4.803 4.721,-3.133 9.196,-6.664 13.589,-10.251 1.709,-1.396 2.682,-1.286 4.219,0.113 6.968,6.34 14.568,11.713 23.427,15.191 9.199,3.61 18.414,3.251 27.797,0.827 7.108,-1.837 13.051,-5.25 17.113,-11.476 5.569,-8.536 4.917,-22.782 -4.883,-30.607 -8.234,-6.573 -17.597,-9.174 -27.931,-8.732"
             style="fill:#ffffff;fill-opacity:1;fill-rule:nonzero;stroke:none"
             id="path320" /></g><g
           id="g322"
           transform="translate(335.4107,339.6865)"><path
             d="M 0,0 V 11.819"
             style="fill:none;stroke:#ffffff;stroke-width:3;stroke-linecap:butt;stroke-linejoin:miter;stroke-miterlimit:10;stroke-dasharray:none;stroke-opacity:1"
             id="path324" /></g><g
           id="g326"
           transform="translate(350.5955,376.1127)"><path
             d="m 0,0 c 0,-8.586 -7.468,-28.909 -15.159,-28.909 -7.691,0 -14.282,21.471 -14.282,30.058 0,8.586 6.591,12.253 14.282,12.253 C -7.468,13.402 0,8.586 0,0"
             style="fill:#ffffff;fill-opacity:1;fill-rule:nonzero;stroke:none"
             id="path328" /></g><g
           id="g330"
           transform="translate(301.9557,309.515)"><path
             d="m 0,0 c -3.788,-23.737 21.374,-7.743 27.671,2.986 1.044,1.78 3.353,4.001 4.983,3.927 C 34.347,6.836 36.456,4.512 37.465,2.668 43.033,-7.512 66.95,-21.863 66.95,-1.41 65.431,18.03 49.096,25.31 32.784,25.016 16.357,24.721 0.732,18.425 0,0 M 70.896,-16.978 C 54.8,-19.287 42.564,-16.973 32.447,-2.058 22.706,-16.614 11.527,-20.022 -4.767,-16.655 -7.839,-1.296 -7.622,15.67 5.894,25.611 c 11.425,8.403 40.685,7.804 53.096,0.937 16.785,-9.287 15.625,-36.574 11.906,-43.526"
             style="fill:#ffffff;fill-opacity:1;fill-rule:nonzero;stroke:none"
             id="path332" /></g><g
           id="g334"
           transform="translate(312.1195,242.9029)"><path
             d="M 0,0 H -127.406"
             style="fill:#ffffff;fill-opacity:1;fill-rule:nonzero;stroke:#ffffff;stroke-width:2;stroke-linecap:butt;stroke-linejoin:miter;stroke-miterlimit:10;stroke-dasharray:none;stroke-opacity:1"
             id="path336" /></g><g
           id="g338"
           transform="translate(489.8549,242.2518)"><path
             d="M 0,0 H -131.512"
             style="fill:#ffffff;fill-opacity:1;fill-rule:nonzero;stroke:#ffffff;stroke-width:2;stroke-linecap:butt;stroke-linejoin:miter;stroke-miterlimit:10;stroke-dasharray:none;stroke-opacity:1"
             id="path340" /></g><g
           id="g342"
           transform="translate(335.1935,146.8612)"><path
             d="M 0,0 V 47.836"
             style="fill:none;stroke:#ffffff;stroke-width:8;stroke-linecap:butt;stroke-linejoin:miter;stroke-miterlimit:10;stroke-dasharray:none;stroke-opacity:1"
             id="path344" /></g><g
           id="g346"><g
             id="g348" /><g
             id="g360"><g
               clip-path="url(#clipPath352)"
               opacity="0.649994"
               id="g358"><g
                 transform="translate(472.3494,433.9717)"
                 id="g356"><path
                   d="m 0,0 c -0.158,0.362 -0.316,0.725 -0.474,1.087 -9.386,-2.099 -18.896,-3.766 -28.127,-6.408 -11.465,-3.28 -22.039,-8.534 -30.274,-17.535 -0.918,-1.004 -1.536,-2.651 -1.578,-4.022 -0.176,-5.734 0.26,-11.5 -0.154,-17.209 -0.844,-11.628 -4.126,-22.389 -12.637,-30.952 -0.178,-0.179 -0.204,-0.508 -0.369,-0.946 0.754,0.042 1.37,0.013 1.961,0.12 8.338,1.501 16.326,4.078 23.784,8.12 17.235,9.342 28.521,23.415 33.606,42.421 C -11.685,-15.693 -7.914,-6.683 0,0"
                   style="fill:#ffffff;fill-opacity:1;fill-rule:nonzero;stroke:none"
                   id="path354" /></g></g></g></g><g
           id="g362"><g
             id="g364" /><g
             id="g376"><g
               clip-path="url(#clipPath368)"
               opacity="0.850006"
               id="g374"><g
                 transform="translate(405.3081,416.9681)"
                 id="g372"><path
                   d="m 0,0 c -7.571,-3.569 -15.636,-6.919 -23.228,-11.124 -4.41,-2.442 -8.248,-6.053 -11.981,-9.528 -2.312,-2.152 -3.676,-5.004 -3.405,-8.558 0.428,-5.62 0.72,-11.283 0.516,-16.908 -0.227,-6.302 -1.77,-12.416 -5.099,-17.867 -1.515,-2.481 -3.545,-4.648 -5.365,-6.99 15.45,-3.785 29.738,1.735 37.983,13.294 8.611,12.071 11.471,25.633 10.631,40.244 C -0.268,-11.88 0,-6.289 0,0"
                   style="fill:#ffffff;fill-opacity:1;fill-rule:nonzero;stroke:none"
                   id="path370" /></g></g></g></g><g
           id="g378"><g
             id="g380" /><g
             id="g392"><g
               clip-path="url(#clipPath384)"
               opacity="0.75"
               id="g390"><g
                 transform="translate(367.9453,413.5882)"
                 id="g388"><path
                   d="m 0,0 c 0.477,0.381 0.768,0.52 0.923,0.75 7.304,10.887 16.614,19.518 28.312,25.569 1.034,0.535 1.864,2.159 2.11,3.412 1.885,9.558 1.798,19.174 0.52,28.832 -0.356,0.034 -0.695,0.168 -0.953,0.076 C 19.425,54.564 9.315,48.194 0.286,40.075 -0.199,39.639 -0.435,38.383 -0.182,37.75 3.293,29.047 3.171,20.072 1.93,11.023 1.436,7.425 0.684,3.861 0,0"
                   style="fill:#ffffff;fill-opacity:1;fill-rule:nonzero;stroke:none"
                   id="path386" /></g></g></g></g><g
           id="g394"><g
             id="g396" /><g
             id="g408"><g
               clip-path="url(#clipPath400)"
               opacity="0.75"
               id="g406"><g
                 transform="translate(437.9031,450.1308)"
                 id="g404"><path
                   d="m 0,0 c -23.833,-5.428 -61.835,-29.9 -66.031,-42.265 13.448,9.134 27.261,17.004 43.137,21.39 -0.558,-3.627 -1.058,-6.878 -1.602,-10.42 5.801,3.834 11.084,7.509 16.562,10.866 2.618,1.604 4.607,3.617 5.301,6.477 C -1.562,-9.531 -0.92,-5.006 0,0"
                   style="fill:#ffffff;fill-opacity:1;fill-rule:nonzero;stroke:none"
                   id="path402" /></g></g></g></g><g
           id="g410"><g
             id="g412" /><g
             id="g424"><g
               clip-path="url(#clipPath416)"
               opacity="0.649994"
               id="g422"><g
                 transform="translate(272.5453,357.815)"
                 id="g420"><path
                   d="m 0,0 c -3.327,0.797 -7.223,1.497 -10.973,2.668 -22.725,7.098 -38.718,21.359 -46.579,44.165 -1.934,5.61 -3.41,11.438 -5.95,16.759 -2.157,4.519 -5.545,8.452 -8.638,13.013 4.818,-0.744 9.747,-1.318 14.596,-2.29 12.041,-2.414 23.629,-6.108 34.002,-12.934 1.628,-1.071 3.127,-2.339 4.747,-3.425 5.069,-3.398 6.796,-7.909 6.222,-14.105 -0.876,-9.474 0.019,-19.006 3.732,-27.853 C -6.505,10.431 -3.007,5.352 0,0"
                   style="fill:#ffffff;fill-opacity:1;fill-rule:nonzero;stroke:none"
                   id="path418" /></g></g></g></g><g
           id="g426"><g
             id="g428" /><g
             id="g440"><g
               clip-path="url(#clipPath432)"
               opacity="0.850006"
               id="g438"><g
                 transform="translate(266.5881,416.403)"
                 id="g436"><path
                   d="m 0,0 c 10.828,-3.778 21.831,-8.252 31.233,-15.84 5.669,-4.575 8.689,-9.875 7.102,-17.92 -1.721,-8.718 -0.442,-17.671 3.206,-25.915 1.704,-3.851 4.433,-7.249 6.639,-10.759 C 32.872,-74.538 17.249,-68.163 8.656,-54.17 0.633,-41.104 -0.79,-26.88 0.308,-12.038 0.598,-8.126 0.128,-4.158 0,0"
                   style="fill:#ffffff;fill-opacity:1;fill-rule:nonzero;stroke:none"
                   id="path434" /></g></g></g></g><g
           id="g442"><g
             id="g444" /><g
             id="g456"><g
               clip-path="url(#clipPath448)"
               opacity="0.550003"
               id="g454"><g
                 transform="translate(314.9747,413.4243)"
                 id="g452"><path
                   d="m 0,0 c -3.145,6.498 -3.852,12.602 -3.515,18.861 0.942,17.513 7.986,32.946 16.493,47.86 2.578,4.519 5.21,9.007 8.016,13.851 C 31.339,63.351 41.342,46.575 44.765,26.931 46.334,17.929 46.329,8.952 42.044,-0.092 37.382,15.39 29.092,28.566 21.048,42.511 12.996,28.748 4.885,15.621 0,0"
                   style="fill:#ffffff;fill-opacity:1;fill-rule:nonzero;stroke:none"
                   id="path450" /></g></g></g></g><g
           id="g458"><g
             id="g460" /><g
             id="g472"><g
               clip-path="url(#clipPath464)"
               opacity="0.75"
               id="g470"><g
                 transform="translate(275.3038,472.5888)"
                 id="g468"><path
                   d="m 0,0 c 12.428,-4.464 23.025,-11.094 32.477,-19.773 -5.375,-13.144 -3.675,-26.268 -0.287,-40.174 -1.787,2.349 -3.134,4.022 -4.377,5.768 -6.395,8.985 -14.711,15.693 -24.333,20.96 -1.303,0.713 -2.571,2.394 -2.897,3.843 C -1.577,-19.753 -1.285,-10.056 0,0"
                   style="fill:#ffffff;fill-opacity:1;fill-rule:nonzero;stroke:none"
                   id="path466" /></g></g></g></g><g
           id="g474"><g
             id="g476" /><g
             id="g488"><g
               clip-path="url(#clipPath480)"
               opacity="0.75"
               id="g486"><g
                 transform="translate(257.5096,429.1252)"
                 id="g484"><path
                   d="m 0,0 c 0.577,-3.305 1.155,-6.609 1.752,-10.025 -6.463,4.245 -12.803,8.209 -18.88,12.541 -1.53,1.09 -2.7,3.234 -3.194,5.115 -1.13,4.306 -1.741,8.749 -2.715,13.953 C 4.08,14.258 25.629,0.27 43.001,-20.372 36.164,-16.401 29.496,-12.093 22.442,-8.553 15.334,-4.986 7.843,-2.183 0.521,0.955 0.347,0.637 0.174,0.318 0,0"
                   style="fill:#ffffff;fill-opacity:1;fill-rule:nonzero;stroke:none"
                   id="path482" /></g></g></g></g></g></g></g></svg>
